name rise34.3697peak60.0498fall86.3158.mot
datacolumns 19
datarows 29
range 8.30997100000000 8.35663900000000
endheader
time	ground_force1_vx	ground_force1_vy	ground_force1_vz	ground_force1_px	ground_force1_py	ground_force1_pz	ground_force2_vx	ground_force2_vy	ground_force2_vz	ground_force2_px	ground_force2_py	ground_force2_pz	ground_torque1_x	ground_torque1_y	ground_torque1_z	ground_torque2_x	ground_torque2_y	ground_torque2_z	
8.30997100000000	-56.83338600000000	835.61700499999995	66.33313800000001	0.21329100000000	0.00000000000000	0.12738900000000	-6.69343500000000	67.53641100000000	11.09587600000000	0.46169100000000	0.00000000000000	-0.06055300000000	0.00000000000000	40.85056100000000	0.00000000000000	0.00000000000000	10.07015900000000	0.00000000000000	
8.31163100000000	-56.89254500000000	832.81842600000004	66.13800400000000	0.21262500000000	0.00000000000000	0.12734000000000	-6.90991200000000	71.81173900000000	11.48893900000000	0.46290400000000	0.00000000000000	-0.06077500000000	0.00000000000000	40.65664500000000	0.00000000000000	0.00000000000000	10.43840900000000	0.00000000000000	
8.31330600000000	-56.94803600000000	829.84036900000001	65.91262600000000	0.21197200000000	0.00000000000000	0.12728800000000	-7.05808500000000	75.85568800000000	11.79383000000000	0.46419700000000	0.00000000000000	-0.06098700000000	0.00000000000000	40.45232200000000	0.00000000000000	0.00000000000000	10.73092500000000	0.00000000000000	
8.31496800000000	-57.00058000000000	826.68422999999996	65.65686300000000	0.21133400000000	0.00000000000000	0.12723200000000	-7.14104600000000	79.71507300000000	12.01997600000000	0.46555700000000	0.00000000000000	-0.06119000000000	0.00000000000000	40.23785800000000	0.00000000000000	0.00000000000000	10.95654100000000	0.00000000000000	
8.31663300000000	-57.05089600000000	823.35158200000001	65.37063999999999	0.21071100000000	0.00000000000000	0.12717200000000	-7.16296500000000	83.44434099999999	12.17821400000000	0.46697400000000	0.00000000000000	-0.06138600000000	0.00000000000000	40.01353400000000	0.00000000000000	0.00000000000000	11.12534200000000	0.00000000000000	
8.31830600000000	-57.09969500000000	819.84416799999997	65.05394300000000	0.21010200000000	0.00000000000000	0.12710700000000	-7.12851400000000	87.10060100000000	12.27975200000000	0.46843600000000	0.00000000000000	-0.06157600000000	0.00000000000000	39.77964200000000	0.00000000000000	0.00000000000000	11.24771200000000	0.00000000000000	
8.31996400000000	-57.14768100000000	816.16388700000005	64.70682300000000	0.20950800000000	0.00000000000000	0.12703800000000	-7.04234900000000	90.73928400000000	12.33527200000000	0.46993500000000	0.00000000000000	-0.06176200000000	0.00000000000000	39.53648600000000	0.00000000000000	0.00000000000000	11.33352800000000	0.00000000000000	
8.32163500000000	-57.19554400000000	812.31278499999996	64.32939100000000	0.20892900000000	0.00000000000000	0.12696400000000	-6.90869800000000	94.41066300000000	12.35423300000000	0.47146000000000	0.00000000000000	-0.06194500000000	0.00000000000000	39.28437800000000	0.00000000000000	0.00000000000000	11.39151600000000	0.00000000000000	
8.32330600000000	-57.24395900000000	808.29304400000001	63.92182100000000	0.20836400000000	0.00000000000000	0.12688500000000	-6.73105500000000	98.15735500000000	12.34438000000000	0.47300500000000	0.00000000000000	-0.06212600000000	0.00000000000000	39.02363700000000	0.00000000000000	0.00000000000000	11.42881100000000	0.00000000000000	
8.32496800000000	-57.29357900000000	804.10696600000006	63.48434800000000	0.20781500000000	0.00000000000000	0.12680100000000	-6.51199300000000	102.01282000000000	12.31148100000000	0.47456000000000	0.00000000000000	-0.06230600000000	0.00000000000000	38.75459100000000	0.00000000000000	0.00000000000000	11.45069800000000	0.00000000000000	
8.32663900000000	-57.34503400000000	799.75697000000002	63.01726600000000	0.20728100000000	0.00000000000000	0.12671100000000	-6.25308400000000	106.00078999999999	12.25923900000000	0.47611900000000	0.00000000000000	-0.06248500000000	0.00000000000000	38.47757100000000	0.00000000000000	0.00000000000000	11.46054400000000	0.00000000000000	
8.32830400000000	-57.39892700000000	795.24557000000004	62.52092700000000	0.20676100000000	0.00000000000000	0.12661700000000	-5.95491900000000	110.13551300000000	12.18939500000000	0.47767400000000	0.00000000000000	-0.06266400000000	0.00000000000000	38.19291100000000	0.00000000000000	0.00000000000000	11.45987500000000	0.00000000000000	
8.32996400000000	-57.45582700000000	790.57537300000001	61.99574200000000	0.20625500000000	0.00000000000000	0.12651700000000	-5.61719900000000	114.42262400000000	12.10194200000000	0.47922100000000	0.00000000000000	-0.06284500000000	0.00000000000000	37.90095000000000	0.00000000000000	0.00000000000000	11.44858100000000	0.00000000000000	
8.33163200000000	-57.51626800000000	785.74906099999998	61.44217400000000	0.20576300000000	0.00000000000000	0.12641200000000	-5.23889100000000	118.86048500000000	11.99543600000000	0.48075100000000	0.00000000000000	-0.06302600000000	0.00000000000000	37.60202300000000	0.00000000000000	0.00000000000000	11.42520000000000	0.00000000000000	
8.33330600000000	-57.58074400000000	780.76938199999995	60.86074300000000	0.20528500000000	0.00000000000000	0.12630100000000	-4.81840900000000	123.44179000000000	11.86736100000000	0.48226000000000	0.00000000000000	-0.06320900000000	0.00000000000000	37.29646900000000	0.00000000000000	0.00000000000000	11.38725400000000	0.00000000000000	
8.33496900000000	-57.64970500000000	775.63913700000001	60.25201700000000	0.20481900000000	0.00000000000000	0.12618500000000	-4.35381300000000	128.15527800000001	11.71450200000000	0.48374300000000	0.00000000000000	-0.06339400000000	0.00000000000000	36.98462200000000	0.00000000000000	0.00000000000000	11.33159900000000	0.00000000000000	
8.33663400000000	-57.72355000000000	770.36117100000001	59.61661700000000	0.20436600000000	0.00000000000000	0.12606300000000	-3.84301000000000	132.98739000000000	11.53330300000000	0.48519500000000	0.00000000000000	-0.06358100000000	0.00000000000000	36.66681400000000	0.00000000000000	0.00000000000000	11.25476100000000	0.00000000000000	
8.33830500000000	-57.80262900000000	764.93836299999998	58.95520600000000	0.20392500000000	0.00000000000000	0.12593500000000	-3.28393300000000	137.92378500000001	11.32018900000000	0.48661000000000	0.00000000000000	-0.06377100000000	0.00000000000000	36.34337000000000	0.00000000000000	0.00000000000000	11.15324100000000	0.00000000000000	
8.33996600000000	-57.88723400000000	759.37360899999999	58.26849700000000	0.20349500000000	0.00000000000000	0.12580100000000	-2.67469200000000	142.95059800000001	11.07182900000000	0.48798600000000	0.00000000000000	-0.06396400000000	0.00000000000000	36.01461100000000	0.00000000000000	0.00000000000000	11.02376300000000	0.00000000000000	
8.34163400000000	-57.97759500000000	753.66981999999996	57.55724200000000	0.20307500000000	0.00000000000000	0.12566200000000	-2.01369500000000	148.05542199999999	10.78534200000000	0.48931700000000	0.00000000000000	-0.06415900000000	0.00000000000000	35.68085000000000	0.00000000000000	0.00000000000000	10.86347000000000	0.00000000000000	
8.34330200000000	-58.07388100000000	747.82990600000005	56.82223200000000	0.20266500000000	0.00000000000000	0.12551600000000	-1.29973300000000	153.22798499999999	10.45842500000000	0.49060000000000	0.00000000000000	-0.06435700000000	0.00000000000000	35.34239200000000	0.00000000000000	0.00000000000000	10.67005000000000	0.00000000000000	
8.34497100000000	-58.17619100000000	741.85676799999999	56.06429700000000	0.20226400000000	0.00000000000000	0.12536500000000	-0.53203400000000	158.46052700000001	10.08943100000000	0.49183200000000	0.00000000000000	-0.06455900000000	0.00000000000000	34.99953200000000	0.00000000000000	0.00000000000000	10.44181400000000	0.00000000000000	
8.34663800000000	-58.28455500000000	735.75329299999999	55.28429900000000	0.20187000000000	0.00000000000000	0.12520800000000	0.28972700000000	163.74792099999999	9.67738000000000	0.49301000000000	0.00000000000000	-0.06476300000000	0.00000000000000	34.65255500000000	0.00000000000000	0.00000000000000	10.17771000000000	0.00000000000000	
8.34829900000000	-58.39892800000000	729.52233899999999	54.48313500000000	0.20148300000000	0.00000000000000	0.12504500000000	1.16542600000000	169.08756299999999	9.22193300000000	0.49413100000000	0.00000000000000	-0.06497000000000	0.00000000000000	34.30173300000000	0.00000000000000	0.00000000000000	9.87729400000000	0.00000000000000	
8.34997000000000	-58.51918900000000	723.16673400000002	53.66172700000000	0.20110200000000	0.00000000000000	0.12487600000000	2.09453000000000	174.47910300000001	8.72332700000000	0.49519200000000	0.00000000000000	-0.06518000000000	0.00000000000000	33.94732700000000	0.00000000000000	0.00000000000000	9.54067900000000	0.00000000000000	
8.35163500000000	-58.64513700000000	716.68926599999998	52.82102500000000	0.20072500000000	0.00000000000000	0.12470100000000	3.07613400000000	179.92404800000000	8.18228400000000	0.49619200000000	0.00000000000000	-0.06539200000000	0.00000000000000	33.58958500000000	0.00000000000000	0.00000000000000	9.16844500000000	0.00000000000000	
8.35330500000000	-58.77649300000000	710.09267999999997	51.96200300000000	0.20035200000000	0.00000000000000	0.12452000000000	4.10901500000000	185.42531800000000	7.59991800000000	0.49712800000000	0.00000000000000	-0.06560700000000	0.00000000000000	33.22874200000000	0.00000000000000	0.00000000000000	8.76155300000000	0.00000000000000	
8.35496900000000	-58.91289100000000	703.37967100000003	51.08565600000000	0.19998100000000	0.00000000000000	0.12433400000000	5.19169400000000	190.98676900000001	6.97762700000000	0.49799900000000	0.00000000000000	-0.06582500000000	0.00000000000000	32.86501700000000	0.00000000000000	0.00000000000000	8.32124200000000	0.00000000000000	
8.35663900000000	-59.05388500000000	696.55288599999994	50.19299500000000	0.19961100000000	0.00000000000000	0.12414200000000	6.32248400000000	196.61275000000001	6.31700500000000	0.49880200000000	0.00000000000000	-0.06604400000000	0.00000000000000	32.49861400000000	0.00000000000000	0.00000000000000	7.84894300000000	0.00000000000000	
